<?xml version="1.0" encoding="UTF-8"?><svg id="Layer_2" xmlns="http://www.w3.org/2000/svg" viewBox="0 0 39.05 13.47"><defs><style>.cls-1{fill:#fff;}</style></defs><g id="First_name"><path class="cls-1" d="m1.08,11.91s.02.01.05.01c0,0,.1.06.13.05.06.01.19-.01.19-.01.07,0,.17-.01.17-.02.05-.1.11-.17.17-.25.19-.29.38-.61.4-.82,0-.02-.01-.06-.02-.12-.05-.23-.13-.62-.13-.74.01-.04,0-.14,0-.28-.02.04-.23-.25-.23-.25.01-.04-.04-.12-.08-.18-.1-.12-.19-.24-.24-.43v-.05l-.2-.47c0-.1-.02-.26-.01-.5,0-.16.04-.28.04-.3.02-.85,1.08-1.87,1.9-2.04.02,0,.08-.01.13-.01.18.01.47-.02.61-.08.71.46.16,1.37.01,1.37-.04-.01-.31.06-.31.06-.04,0-.35.14-.44.2,0,0-.17.14-.24.14-.05.07-.14.16-.14.16l-.05.14s-.11.34-.1.36c-.02.06.05.37.07.44,0,0,.01.04.04.06.05.13.11.31.12.42.01-.07.13.07.16.1v.11c.1.12.08.02.08.12,0,0,.22.46.22.53.04.17.08.32.11.44.1.32.14.58.1,1.12l-.25.88s-.35.49-.48.65c-.25.31-.89.74-1.32.77-.1-.01-.56-.02-.56-.02-.13-.02-.6-.26-.71-.34-.26-.17-.35-.86.02-1.21h.01c.31-.2.64-.06.82.01Z"/><path class="cls-1" d="m6.87,10.32s-.04.01-.05.01c-.44.11-.85.2-1.36.13l-.6-.18c-.41-.17-.73-.53-.78-.96,0-.05,0-.13.02-.25v.02s.01-.19.01-.19v-.22s.08-.28.08-.28c.49-.71,1.03-1.26,1.96-1.42.02,0,.05-.01.16-.04.22-.06.5-.11.55-.11.12,0,.3.02.5.07h-.01c.26.04.2.12.37.05.04-.13.13-.34.13-.43,0-.22-.05-.5-.23-.56-.02,0-.04-.01-.06-.02-.12,0-.35-.04-.35-.04l-.18.05c-.11.04-.19.02-.29.04l-.23.1c-.06.02-.25.07-.36.16-.08.02-.2.06-.28.11-.11.05-.18.12-.3.12h-.01c-.19.04-.58-.16-.58-.16l-.12-.19c-.22-.66.22-1,.67-1.14.01,0,.07-.01.13-.04.22-.06.61-.17.82-.19l.4-.08c.08-.01.2-.05.19-.05h-.04c.54-.05.8.01,1.36.22.47.25.59.41.76,1v.13c-.02.43-.06.96-.17,1.43h0s-.08.3-.08.3c-.02.05-.01-.01-.04.08-.07.25-.14.6-.19.79-.08.28-.2.78-.24.95,0,.06-.01.11-.04.19t-.01.04c.06.24-.01.2-.02.31-.01.1-.01.16-.01.17,0,.12-.1.44-.1.44l-.06.25c-.13.32-.55.5-.92.4l-.22-.17-.06-.05c-.22-.24-.2-.52-.14-.79Zm-1.2-1.18s.37.06.46.05c.08-.01.2,0,.31-.02.24-.05.4-.13.6-.4.01-.04.2-.3.2-.3.01-.07.01,0,.05-.13-.06-.02-.11-.02-.13-.02-.22-.04-.41-.07-.53-.07-.16,0-.35.04-.58.14-.18.06-.42.34-.49.61v.08s.08.06.11.06Z"/><path class="cls-1" d="m14.07,12.83c-.13-.26-.02-.52.06-.73v.04l.02-.08c.12-.37.26-.77.4-1.14l.14-.4.02-.08c-.01-.16.04-.43.04-.43.08-.31.08-.92-.08-1.1h-.05c-.35.14-.66.37-.88.7-.22.31-.37.65-.54.97-.04.12-.08.3-.17.41h0s-.05.05-.05.05l-.06.23-.13.35v-.02l-.04.11c-.02.22-.17.62-.17.62l-.1.06s-.06.1-.07.13l-.17.29-.7-.02s-.38-.38-.4-.46c-.08-.41.08-.84.23-1.16.05-.2.24-.72.35-.95.01-.1.05-.19.05-.19v-.05c.04-.13.1-.23.06-.36-.01-.06.04-.11.04-.11.02-.12.02-.24.02-.37,0-.18.01-.02,0-.18-.04.02-.07.02-.11.05-.01,0-.02.01-.04.01-.44.16-.76.47-1.01.85-.31.47-.52,1.06-.7,1.6h0s-.14.42-.14.42h.01l-.12.37-.05.11c-.07.22-.19.5-.53.66,0,0-.19.01-.38.05l-.42-.34c0-.1,0-.24-.01-.31,0-.06-.01-.13-.01-.17.01-.17.12-.68.18-.85h0s.13-.29.13-.29h0c.28-.78.5-1.56.72-2.34h0s.11-.46.11-.46c.13-.54.17-1.1.49-1.62h-.01c.11-.17.34-.31.34-.31h.3c.24-.02.59.31.59.31,0,.02.05.18.06.25.01.06.01.17.01.22.02.23-.07.37-.18.61l.46-.2c.37-.08.77-.17,1.14-.16.2.1.38.29.52.5l.02.28c.18-.2.55-.49.55-.49,0,0,.23-.25.41-.26h.18s.28-.1.28-.1h.24c.7.22,1.12.91,1.16,1.52l.05.64c.02.26-.04.56-.04.71,0,0-.04.24-.04.3l-.05.2c-.11.42-.22.83-.37,1.2v-.06c-.02.14-.04.25-.06.38-.04.25-.08.47-.23.74l-.22.22-.61.06s-.34-.18-.47-.41Z"/><path class="cls-1" d="m21.22,6.6c0,.25-.04.37-.06.56-.02.16-.04.29-.04.32,0,.14-.16.65-.23.9v-.08.02c0,.11-.05.23-.1.36-.02.05-.05.1-.05.08-.01.1-.04.23-.08.36-.02.08-.05.18-.05.22l-.2.36.02-.07s-.02.05-.02.07c-.04.14-.04.23-.05.38-.04.25-.04.55-.2.86-.29.41-.67.36-1.02.24l-.07-.17v-.28c-.06.01-.11.01-.13.01s-.34.2-.44.24c-.18.06-.37.11-.43.11h-.22l-.2-.02c-.16-.04-.28-.05-.3-.05-.16,0-.4-.14-.4-.14-.01-.01-.35-.22-.38-.47-.01.06-.04-.02-.05-.08h.01c-.07-.12-.13-.25-.13-.38v-.07c0-.11.01-.28.02-.41.01-.1.01-.13.01-.16,0-.13.11-.58.11-.58,0,0,.17-.26.24-.34l.1-.12c.26-.36.47-.68,1.08-.85.04,0,.12-.02.2-.05.14-.04.13-.1.42-.1h.44l.68.38.02-.06v.02c.07-.22.13-.42.13-.64,0-.08-.02-.19-.06-.32,0-.01,0-.02-.01-.05l-.28-.08c-.13-.04-.34-.1-.37-.1-.17,0-.53.08-.65.14-.13.06-.19.08-.24.12-.06.05-.13.1-.28.17l-.3.17h-.43c-.67-.14-.59-.8-.46-1.07l.11-.17c.16-.08.18-.08.22-.12.08-.1.17-.18.52-.29,0,0,.16-.05.25-.08h-.01c.14-.06.29-.11.38-.12l.3-.06c.07-.02.17-.05.22-.07h.7c.53,0,.89.18,1.39.6v.05c.14.23.36.78.36.88Zm-2.05,2.31s-.2-.07-.25-.13c-.04-.02-.11-.08-.13-.08-.37-.1-.54,0-.72.2l-.12.13-.05.08-.11.38c0,.07.01.13.05.14l.11.07.2-.04c.1-.01.16-.02.26-.02.07,0,.44-.13.65-.22l.02-.16c.01-.1.08-.22.08-.18v-.19Z"/><path class="cls-1" d="m25.81,9.81v-.02c-.01.19-.08.43-.16.67-.06.22-.12.46-.17.68l-.05.16c0,.13-.04.28-.06.4l-.02.19-.11.28s-.35.6-.42.6l-.36.04s-.41-.24-.43-.3l-.13-.22v-.17c-.02-.08-.05-.2-.05-.22,0-.07.04-.24.08-.4h-.01l.05-.17.06-.28v.02c.01-.12.07-.26.14-.41h0s.05-.12.06-.11c0-.02.07-.54.14-.7v-.1c0-.06.02-.22.07-.36v.02c.05-.18.11-.44.11-.47l.05-.19s.01-.08.01-.1c.02-.11.04-.22.02-.28h-.04s-.06-.01-.06-.02c-.04.02-.14.04-.19.05l-.13.06c-.1.05-.23.1-.4.17-.11.05-.25.17-.37.24l-.1.11c-.06.06-.17.23-.24.29-.1.08-.12.18-.16.23t-.01.02l-.13.26h0c-.17.32-.31.62-.42,1.01l-.02.24c0,.14-.07.31-.13.46-.04.08-.06.16-.06.14l-.05.29s-.18.37-.23.44l-.04.05c-.06.12-.25.38-.52.43-.12.01-.26.04-.41-.11-.11-.08-.24-.32-.24-.32-.18-.25-.14-.52-.1-.74v-.04c.06-.17.12-.38.17-.55.18-.55.35-1.03.52-1.62,0-.12.04-.25.07-.36h0c.02-.06.04-.13.04-.13.05-.25.37-1.62.5-1.86l-.02.14c.07-.22.43-.64.56-.66h-.01c.06,0,.2-.04.3-.07.54.12.6.4.64.72v-.02c0,.06,0,.11-.01.17.29-.26.73-.38,1.16-.48.17-.04.73,0,.73,0,0,0,.24.17.36.24.28.19.34.59.38.86v.16c.04.61-.06,1.08-.19,1.62Z"/><path class="cls-1" d="m27.05,9.89h.01c-.27-.12-.58-.22-.64-.55v-.05s-.12-.34-.12-.34c-.06-.18-.12-.38-.16-.43v-.28c-.04-.52.13-1.06.15-1.4,0,0,.04-.22.02-.3l.02-.08c-.07.03-.26.09-.3.1-.08.04-.2.12-.26.15l-.56-.03s-.31-.27-.34-.36c-.12-.18-.08-.34-.01-.51,0-.01.01-.05.02-.1.21-.36.48-.45.71-.54.11-.05.45-.15.61-.19l.35-.1c.02-.2.08-.61.14-.97.08-.47.18-.96.17-1.17.04-.07.05-.36.07-.58h0c0-.09.03-.18.03-.23.01-.12,0-.28-.02-.46,0-.23-.05-.45.03-.8-.05-.24.14-.36.14-.36.51-.39.33-.17.41-.21.04-.02.14-.04.18-.06.33-.15.65.12.75.45.02.03.05.12.05.15h-.01c.04.08.06.12.08.23l-.05.3c-.11.36-.16.85-.22,1.25l-.03.26v-.04c-.01.15-.07.45-.11.72-.05.29-.12.7-.14.7l.03.26v.03c.12-.03.24-.08.34-.12.28-.13.53-.23,1.01-.28.18.09.38.19.45.36.05.13.21.64.21.64l-.33.32-1.88.63c-.03.2-.07.53-.09.7-.12.77-.19,1.26-.12,1.64.02.08,0,.16.05.25l.04.03c.06.04.12.05.15.08.07-.01.14-.04.17-.05.21-.09.24-.08.44-.21.03-.03.05-.07.07-.09l-.02.03.23-.28s.25-.17.32-.2c.13-.03.63.01.63.01.17.31.19.37.22.42.03.07-.04.22,0,.44,0,0-.1.19-.16.3l-.2.23c-.01.05-.05.12-.06.13l-.16.03c-.48.41-.84.57-1.52.72h-.26s-.2-.07-.2-.07c-.1-.09-.2-.13-.29-.18Z"/><path class="cls-1" d="m34.19,9.54v.03s-.03.05-.04.07c0,.12-.06.76-.06.87-.04.32-.17,1.7-.2,2.02,0,0-.28.25-.47.33l-.35-.06-.1-.03c-.1-.03-.45-.2-.45-.2l-.07-.29s.02-.45.07-.53l.05-.23.05-.26h-.01c.02-.09.04-.2,0-.27l.15-.86v-.12s0,.01,0,.01c0-.25.02-.59.05-.72,0-.14-.03-.34,0-.5.02-.13.03-.21.02-.23l-.05-.34-.04-.24c-.98.18-1.02.76-1.2,1.44v.1s-.02-.01-.02-.01c-.04.21-.08.85-.09.82v.82s-.05.28-.05.28l.02.18-.02.29c-.02.05-.08.23-.12.36-.04.14-.07.3-.1.34-.05.21-.22.4-.22.4-.08.03-.41.16-.6.21l-.37-.11-.22-.6c-.02-.09,0-.27.04-.42,0-.03,0-.04,0-.05.08-.46.09-.63.08-.84,0-.18.03-.47.07-.86.03-.1.05-.6.07-.91l.02-.34.06-.3v-.02c-.19-.34,0-.27.03-.44,0-.06.03-.07.03-.08l-.02-.22c0-.48.03-.9.08-1.31h0c.03-.25.05-.52.06-.8l.06.2s-.07-.33-.04-.46c0-.03-.02-.13-.03-.19.04-.1.05-.23.06-.41.01-.27.04-.62.09-.84.02-.19.22-1.66.16-1.51l-.02.05.05-.2-.02-.24c.03-.07.06-.18.07-.29.02-.09.08-.26.15-.45.16-.04.22-.06.28-.09.07-.03.25-.09.22-.07.59-.07.75.35.82.63l.06.23c-.05.09-.12.25-.16.38-.05.12-.05.16-.07.19v.17s-.04-.08-.04-.08c.04.2.04.5-.01.83h0c-.03.24-.08.42-.08.42l-.02-.02c.06.15.02.35-.02.56-.02.12-.04.24-.05.26.02.11,0,.24,0,.37,0,.08-.01.16,0,.22l-.11.61v.22c.04.16,0,.24-.03.35-.01.05-.03.13-.04.12v.14c.13-.12.3-.24.3-.24.69-.34,1.1-.53,1.57-.23.03.02.06.04.18.08,0,0,.32.35.35.47,0,.01,0,.04.03.08l.12.29c.22.83.3,1.3.11,2.04Zm-1.45-1.64s-.01,0,0,.01h0Z"/><path class="cls-1" d="m37.6,11.14s-.03.02-.04.02c-.4.21-.78.41-1.28.46l-.63-.03c-.44-.06-.84-.33-.99-.74-.01-.05-.03-.13-.04-.25v.03s-.03-.19-.03-.19l-.06-.21.03-.29c.3-.81.69-1.47,1.55-1.85.02,0,.04-.02.14-.07.19-.11.46-.23.51-.24.12-.03.3-.05.51-.05h-.01c.27-.03.23.07.38-.04,0-.14.05-.36.02-.45-.05-.21-.17-.48-.36-.49-.02,0-.04,0-.06,0-.12.03-.35.05-.35.05l-.16.09c-.1.06-.18.07-.27.11l-.2.15c-.05.04-.23.13-.31.24-.08.04-.18.11-.24.17-.09.07-.14.16-.26.19h-.01c-.18.08-.6,0-.6,0l-.16-.16c-.37-.59-.03-1.02.37-1.27.01,0,.07-.03.12-.07.19-.11.55-.31.74-.39l.36-.18c.08-.03.19-.1.17-.09h-.04c.51-.17.78-.18,1.37-.11.52.13.67.25.98.78l.03.13c.08.42.18.95.19,1.42h0s0,.31,0,.31c-.01.05-.02,0-.01.09,0,.26,0,.62,0,.81-.01.29,0,.81,0,.98.01.06.02.11.01.19t0,.04c.12.22.04.2.05.31.01.1.03.15.03.17.03.12.02.45.02.45v.26c-.05.35-.41.62-.8.61l-.25-.11-.07-.03c-.27-.18-.32-.45-.33-.73Zm-1.45-.85s.37-.03.45-.06c.08-.03.2-.05.3-.1.22-.1.35-.22.48-.53,0-.04.12-.34.12-.34,0-.07.01,0,.02-.14-.06,0-.11,0-.13,0-.22.02-.41.03-.53.06-.15.04-.33.12-.52.28-.16.1-.32.43-.33.71l.02.08s.1.04.12.03Z"/></g></svg>