<?xml version="1.0" encoding="UTF-8"?><svg id="Layer_2" xmlns="http://www.w3.org/2000/svg" viewBox="0 0 23.12 12.46"><defs><style>.cls-1{fill:#fff;}</style></defs><g id="Layer_4"><g id="last_name"><path class="cls-1" d="m0,5.28c0-.08.02-.22.07-.36.06-.18.11-.35.13-.46.01-.05.02-.11.05-.14-.01-.07,0-.16.06-.28.02-.05.04-.06.04-.06l.06-.14.1-.34h0c0,.42.25-.94.32-1.14,0-.11.01-.23.02-.32.01-.08.07-.24.12-.4l.08-.29c0-.06,0-.19.01-.32.01-.12.02-.23.01-.25,0-.14.1-.5.1-.5,0,0,.36-.25.52-.28h.16c.24.04.79.1.79.59,0,.04.01.16.01.23v.16c0,.29-.06.24-.11.35-.02.05-.05.1-.06.05,0,.11-.02.2-.05.29.3-.13.6-.26.86-.35.13-.02.29-.04.48-.04.24,0,.44.02.7.08l.38.08.11.13c.13.12.19.35.19.35.02.1.06.47.06.61l-.23.23c-.25.14-.4.12-.56.12h-.04c-.18,0-.41-.08-.59-.17h-.24c-.14,0-.41.07-.53.16h-.06s-.17.07-.37.14c-.14.05-.33.14-.38.19l-.35.38s.02.07.02.07c-.06.08-.07.18-.1.28h-.01c-.01.1-.02.19-.05.25-.05.2-.06.24-.1.31-.01.02-.02-.05-.07.25-.01.07-.04.22-.07.34v-.02c-.04.12-.06.25-.07.32l-.05.47-.25.32s-.22.08-.43.13c-.31.02-.47-.13-.58-.29l-.06-.2c0-.07-.05-.48-.06-.54Z"/><path class="cls-1" d="m4.05,8.68h.06c-.22-.08-.55-.44-.61-.66-.07-.24-.1-.5-.13-.71-.05-.24-.05-.46-.02-.72,0,0,.04-.07.02-.14.1-.22.2-.52.29-.74.24-.66.49-1.33.95-1.92,0,0,.35-.36.48-.52.12-.14.44-.48.44-.48.06-.01.26-.13.3-.18,0,0,.32-.16.43-.18h.07c.08,0,.31-.02.48-.02.12,0,.16.01.32-.01.16.07.19.11.23.14.22.13.37.22.41.58l.12.42c.06.19.11.38.12.48.04.1.11.31.12.41.04.3.07.49.02.83.01.16-.06.4-.06.4-.01.01-.01.02-.01.04,0,.24-.08.38-.42.44-.23.07-.38.05-.53.02-.06-.01-.11-.02-.13-.02-.32,0-.66,0-1-.01-.35-.01-.7-.01-1.04-.01-.2.4-.36.8-.28,1.21v.06s.08.01.13.04l.26.2c.14.06.54.07.78.05.16-.01.35.07.48.2.01.01.05.02.05.02.48.36.25,1.06-.29,1.27h-.13s-.26-.02-.26-.02l-.29.04c-.52-.02-.95-.24-1.37-.49Zm1.39-3.84c.31.04.98.02,1.26.04-.01-.04,0-.08,0-.12.04-.11.07-.35.05-.49-.02-.18-.06-.37-.11-.37-.04-.02-.22-.06-.28-.01l-.32.24c-.12.14-.17.08-.29.2-.06.06-.28.47-.31.52Z"/><path class="cls-1" d="m11.19,6.23s-.04.01-.05.01c-.44.11-.85.2-1.36.13l-.6-.18c-.41-.17-.73-.53-.78-.96,0-.05,0-.13.02-.25v.02s.01-.19.01-.19v-.22s.08-.28.08-.28c.49-.71,1.03-1.26,1.96-1.42.02,0,.05-.01.16-.04.22-.06.5-.11.55-.11.12,0,.3.02.5.07h-.01c.26.04.2.12.37.05.04-.13.13-.34.13-.43,0-.22-.05-.5-.23-.56-.02,0-.04-.01-.06-.02-.12,0-.35-.04-.35-.04l-.18.05c-.11.04-.19.02-.29.04l-.23.1c-.06.02-.25.07-.36.16-.08.02-.2.06-.28.11-.11.05-.18.12-.3.12h-.01c-.19.04-.58-.16-.58-.16l-.12-.19c-.22-.66.22-1,.67-1.14.01,0,.07-.01.13-.04.22-.06.61-.17.82-.19l.4-.08c.08-.01.2-.05.19-.05h-.04c.54-.05.8.01,1.36.22.47.25.59.41.76,1v.13c-.02.43-.06.96-.17,1.43h0s-.08.3-.08.3c-.02.05-.01-.01-.04.08-.07.25-.14.6-.19.79-.08.28-.2.78-.24.95,0,.06-.01.11-.04.19t-.01.04c.06.24-.01.2-.02.31-.01.1-.01.16-.01.17,0,.12-.1.44-.1.44l-.06.25c-.13.32-.55.5-.92.4l-.22-.17-.06-.05c-.22-.24-.2-.52-.14-.79Zm-1.2-1.18s.37.06.46.05c.08-.01.2,0,.31-.02.24-.05.4-.13.6-.4.01-.04.2-.3.2-.3.01-.07.01,0,.05-.13-.06-.02-.11-.02-.13-.02-.22-.04-.41-.07-.53-.07-.16,0-.35.04-.58.14-.18.06-.42.34-.49.61v.08s.08.06.11.06Z"/><path class="cls-1" d="m11.47,12.02c-.01-.11-.05-.4-.05-.52l.11-.32.05-.22.08-.2.1-.14s.11-.18.11-.19c0-.07.05-.32.1-.54.04-.17.07-.35.07-.41.12-.25.18-.48.24-.7h0c0,.12.06-.19.08-.29v.02s.05-.25.05-.25c.04-.06.05-.16.06-.25.01-.1.02-.19.06-.28,0-.13.06-.22.12-.34h-.01s.04-.08.05-.08c-.01-.11-.05-.28-.06-.35l.24-.32c.05-.14.14-.42.22-.68.06-.24.14-.48.18-.61.02-.08.06-.22.11-.3.02-.05.05-.1.04-.12.1-.31.17-.55.2-.85l.04-.28c0-.23.06-.22.16-.38.06-.11.11-.22.12-.19,0-.12.04-.3.08-.41h0s.01-.04.02-.02c0-.05.02-.16.05-.26.02-.13.07-.36.1-.25.01-.01,0-.11.02-.16.12-.23.24-.53.6-.42.06,0,.14.01.19.01s.11.01.12.01l.32.17c.02.12.06.56.06.64,0,.01-.01.11-.06.34.29-.1.35-.1.5-.14.12.13.36,0,.36,0,.14.13.43.18.43.18,0,0,.17.16.29.23.14.13.49.48.49.48v-.02c.13.12.32.46.36.58.08.26.12.46.17.74v.7c-.17.25-.35.66-.35.66-.05.05-.08.14-.14.25-.12.22-.31.49-.53.64-.05.05-.07.1-.12.14l.04-.05c.07-.1-.73.49-1.07.58-.5.24-1.16.26-1.66.26-.07,0-.16-.01-.22-.02-.05-.01-.08,0-.13,0h-.01c-.11.31-.16.55-.23.89l-.07.35-.05.13c-.01.19-.1.43-.18.67h-.01c-.06.19-.12.38-.14.49v.06c-.08.55-.37,2.31-1.39,1.67h.01c-.18-.11-.31-.3-.31-.3Zm4.23-5.52h-.05c.44-.16.7-.52,1-1.03.07-.1.07-.47.07-.47l-.04-.23c-.06-.11-.12-.19-.18-.2-.02-.05-.07-.14-.07-.23,0,0-.17-.05-.24-.11-.02-.01-.12-.02-.17-.02-.19-.05-.26-.02-.43-.01,0,0-.18.04-.34.11h0c-.07.02-.18.11-.23.12-.02.08-.06.14-.11.23l-.14.34s-.1.31-.16.56l-.06.28-.06.17c-.07.19-.17.5-.17.5,0,.05,0,.12-.01.19.04,0,.07,0,.1-.01h.52c.18-.02.77-.18.77-.18Z"/><path class="cls-1" d="m18.99,7.53h.06c-.22-.08-.55-.44-.61-.66-.07-.24-.1-.5-.13-.71-.05-.24-.05-.46-.02-.72,0,0,.04-.07.02-.14.1-.22.2-.52.29-.74.24-.66.49-1.33.95-1.92,0,0,.35-.36.48-.52.12-.14.44-.48.44-.48.06-.01.26-.13.3-.18,0,0,.32-.16.43-.18h.07c.08,0,.31-.02.48-.02.12,0,.16.01.32-.01.16.07.19.11.23.14.22.13.37.22.41.58l.12.42c.06.19.11.38.12.48.04.1.11.31.12.41.04.3.07.49.02.83.01.16-.06.4-.06.4-.01.01-.01.02-.01.04,0,.24-.08.38-.42.44-.23.07-.38.05-.53.02-.06-.01-.11-.02-.13-.02-.32,0-.66,0-1-.01-.35-.01-.7-.01-1.04-.01-.2.4-.36.8-.28,1.21v.06s.08.01.13.04l.26.2c.14.06.54.07.78.05.16-.01.35.07.48.2.01.01.05.02.05.02.48.36.25,1.06-.29,1.27h-.13s-.26-.02-.26-.02l-.29.04c-.52-.02-.95-.24-1.37-.49Zm1.39-3.84c.31.04.98.02,1.26.04-.01-.04,0-.08,0-.12.04-.11.07-.35.05-.49-.02-.18-.06-.37-.11-.37-.04-.02-.22-.06-.28-.01l-.32.24c-.12.14-.17.08-.29.2-.06.06-.28.47-.31.52Z"/></g></g></svg>