<?xml version="1.0" encoding="UTF-8"?><svg id="Layer_2" xmlns="http://www.w3.org/2000/svg" viewBox="0 0 31.76 28.9"><defs><style>.cls-1{fill:#fff;}</style></defs><g id="Layer_4"><g><path class="cls-1" d="m23.81,27.17c4.01-.78,5.98-4.33,5.92-8.21.21-3.7-.94-7.72-4.07-9.88-3.02-2.06-7.36-2.39-10.81-1.37-7.5,2.32-9.71,12.76-4.53,18.36.84.79,1.99,1.11,3,.61.97-.73,1.21-2.1,1.51-3.36.8-3.08.45-6.87,3.31-9.07,5.03-2.97,10.71,4.38,6.41,8.39-2.83,2.63-5.22-.25-5.46-3.13-.17-1.3,1.76-1.59,1.98-.29.09.85.41,1.81.84,2.25.22.2.31.22.48.2,1.93-.67,2.11-3.22.88-4.67-1.58-2.09-4.64-1.97-5.31.9-1.37,3.47-.39,10.69-5.54,11-5.73-.07-7.83-9.21-6.56-13.68,1.03-4.23,4.13-8.1,8.39-9.39,6.19-1.93,14.27.25,16.55,6.85,2.3,6.02.71,14.78-6.71,15.8-.84.14-1.09-1.11-.27-1.31h0Z"/><path class="cls-1" d="m19.39,22.33c.44.93.52,1.11.39,2.05.08,1.15.4,1.8,1.29,2.55.52.48,1.11.64,1.6,1.28-1.53.76-3.45.02-4.32-1.45-.47-.81-.5-1.76-.36-2.54.08-1.01.45-1.51,1.4-1.89h0Z"/><path class="cls-1" d="m8.47,6.51c-.14-2.34-2.92-4.38-4.94-5.08.11,0,.09,0,.23-.02.08-.01.22-.09.22-.09-.6.38-1.07.91-1.45,1.52-1.16,1.91-1.76,5,.29,6.37.75.56,2.06.62,3.11.7,0,0,.14,1.3.14,1.3-2.43.15-5.18-.58-5.86-3.23C-.53,5.05.71,1.8,3.17.13c.07-.08.32-.16.45-.13,2.63.71,6.17,3.72,5.88,6.72,0,0-.06.52-.06.52l-.96-.2s0-.54,0-.54h0Z"/><path class="cls-1" d="m8.45,8.21c-2.21,1.94-5.71-1.11-4.06-3.57,1.48,1.66,2.04,2.2,4.06,3.57h0Z"/></g></g></svg>