<?xml version="1.0" encoding="UTF-8"?><svg id="Layer_2" xmlns="http://www.w3.org/2000/svg" viewBox="0 0 81.99 81.99"><defs><style>.cls-1{fill:#fff;}.cls-2{fill:#65647c;}</style></defs><g id="Layer_4"><circle class="cls-2" cx="40.99" cy="40.99" r="40.99"/><g><path class="cls-1" d="m53.65,64.29c3.34-.81,6.31-2.54,8.05-5.22,3.31-5.31,3.12-13.65,1.05-19.46-3.47-10.09-15.88-12.92-25.19-10.11-6.47,1.98-11.05,7.81-12.64,14.28-2.14,5.4,1.87,22.69,9.71,19.61,1.69-1.29,2.1-3.7,2.65-5.94.36-1.72.64-3.51.96-5.34.8-4.91,2.33-11.79,8.47-12.31,10.65-1.35,16.22,14.87,5.11,18.41-2.88.68-5.37-2.08-6.11-4.47-.61-1.77-1.66-4.9,1-5.35,1.1-.13,2.1.65,2.23,1.76.15,1.29.62,2.96,1.46,3.84.45.46.74.36,1.28.05,1.39-.86,2.32-2.32,2.28-3.99.02-3.72-3.95-7.47-7.71-6.1-6.36,2.47-2.24,21.49-11.37,23.56-7.69,1.73-12.23-6.65-13.64-12.9-3.31-11.55,3.46-25.3,15.12-28.89,11.41-3.45,25.85.38,30.1,12.48,3.2,9.02,2.64,21.64-6.63,26.84-1.79.97-3.71,1.54-5.62,1.87-.73.13-1.43-.36-1.55-1.09-.13-.7.32-1.38,1.01-1.54h0Z"/><path class="cls-1" d="m45.7,55.68c.45.83.72,1.55,1.06,2.2-.16.51-.18,1.04-.18,1.53.11,1.72.63,2.76,1.67,3.94,1.08,1.17,2.33,1.53,3.37,2.96-1,.7-2.06.7-3.14.55-1.94-.16-3.73-1.22-4.82-3.08-.89-1.5-.93-3.26-.66-4.69.11-.74.34-1.41.49-2.09.67-.54,1.36-.97,2.22-1.3h0Z"/><path class="cls-1" d="m25.89,27.12c-.2-4.01-5.67-7.86-8.8-8.9.04.06.73-.1.93-.24-3.32,2.23-4.52,7.34-3.23,10.91,1.23,3.49,4.71,4.09,8.14,4.29,0,0,.28,2.58.28,2.58-2.43-.03-5.01-.02-7.21-1.28-5.47-2.77-5.8-10.54-2.95-15.24.87-1.54,2.07-2.92,3.63-3.81.17-.07.33-.08.47-.08,4.55.94,11.51,7.03,10.79,12.19,0,0-.12,1.04-.12,1.04l-1.89-.39-.04-1.08h0Z"/><path class="cls-1" d="m25.48,31.12c-2.72,2.77-7.78.49-8.15-3.16-.18-1.17.12-2.31.82-3.27.51.41.82.8,1.17,1.14,1.84,1.94,4.03,3.65,6.17,5.29h0Z"/></g></g></svg>