<svg id="visual" viewBox="0 0 1920 1080" width="1920" height="1080" xmlns="http://www.w3.org/2000/svg" xmlns:xlink="http://www.w3.org/1999/xlink" version="1.1"><path d="M0 443L45.7 445C91.3 447 182.7 451 274.2 479.2C365.7 507.3 457.3 559.7 548.8 574.7C640.3 589.7 731.7 567.3 823 551.2C914.3 535 1005.7 525 1097 526.5C1188.3 528 1279.7 541 1371.2 533.8C1462.7 526.7 1554.3 499.3 1645.8 511C1737.3 522.7 1828.7 573.3 1874.3 598.7L1920 624L1920 1081L1874.3 1081C1828.7 1081 1737.3 1081 1645.8 1081C1554.3 1081 1462.7 1081 1371.2 1081C1279.7 1081 1188.3 1081 1097 1081C1005.7 1081 914.3 1081 823 1081C731.7 1081 640.3 1081 548.8 1081C457.3 1081 365.7 1081 274.2 1081C182.7 1081 91.3 1081 45.7 1081L0 1081Z" fill="#ffffff"></path><path d="M0 629L45.7 622.2C91.3 615.3 182.7 601.7 274.2 599.8C365.7 598 457.3 608 548.8 618.8C640.3 629.7 731.7 641.3 823 624.5C914.3 607.7 1005.7 562.3 1097 540.3C1188.3 518.3 1279.7 519.7 1371.2 548.5C1462.7 577.3 1554.3 633.7 1645.8 656.8C1737.3 680 1828.7 670 1874.3 665L1920 660L1920 1081L1874.3 1081C1828.7 1081 1737.3 1081 1645.8 1081C1554.3 1081 1462.7 1081 1371.2 1081C1279.7 1081 1188.3 1081 1097 1081C1005.7 1081 914.3 1081 823 1081C731.7 1081 640.3 1081 548.8 1081C457.3 1081 365.7 1081 274.2 1081C182.7 1081 91.3 1081 45.7 1081L0 1081Z" fill="#eeebea"></path><path d="M0 699L45.7 687.7C91.3 676.3 182.7 653.7 274.2 642.2C365.7 630.7 457.3 630.3 548.8 641.8C640.3 653.3 731.7 676.7 823 671.5C914.3 666.3 1005.7 632.7 1097 644C1188.3 655.3 1279.7 711.7 1371.2 721.2C1462.7 730.7 1554.3 693.3 1645.8 671.8C1737.3 650.3 1828.7 644.7 1874.3 641.8L1920 639L1920 1081L1874.3 1081C1828.7 1081 1737.3 1081 1645.8 1081C1554.3 1081 1462.7 1081 1371.2 1081C1279.7 1081 1188.3 1081 1097 1081C1005.7 1081 914.3 1081 823 1081C731.7 1081 640.3 1081 548.8 1081C457.3 1081 365.7 1081 274.2 1081C182.7 1081 91.3 1081 45.7 1081L0 1081Z" fill="#ddd8d5"></path><path d="M0 694L45.7 714.8C91.3 735.7 182.7 777.3 274.2 773C365.7 768.7 457.3 718.3 548.8 715.2C640.3 712 731.7 756 823 758.2C914.3 760.3 1005.7 720.7 1097 706.5C1188.3 692.3 1279.7 703.7 1371.2 713C1462.7 722.3 1554.3 729.7 1645.8 743.7C1737.3 757.7 1828.7 778.3 1874.3 788.7L1920 799L1920 1081L1874.3 1081C1828.7 1081 1737.3 1081 1645.8 1081C1554.3 1081 1462.7 1081 1371.2 1081C1279.7 1081 1188.3 1081 1097 1081C1005.7 1081 914.3 1081 823 1081C731.7 1081 640.3 1081 548.8 1081C457.3 1081 365.7 1081 274.2 1081C182.7 1081 91.3 1081 45.7 1081L0 1081Z" fill="#ccc5c1"></path><path d="M0 855L45.7 844.8C91.3 834.7 182.7 814.3 274.2 795C365.7 775.7 457.3 757.3 548.8 762.5C640.3 767.7 731.7 796.3 823 814.5C914.3 832.7 1005.7 840.3 1097 826.3C1188.3 812.3 1279.7 776.7 1371.2 780.3C1462.7 784 1554.3 827 1645.8 848.8C1737.3 870.7 1828.7 871.3 1874.3 871.7L1920 872L1920 1081L1874.3 1081C1828.7 1081 1737.3 1081 1645.8 1081C1554.3 1081 1462.7 1081 1371.2 1081C1279.7 1081 1188.3 1081 1097 1081C1005.7 1081 914.3 1081 823 1081C731.7 1081 640.3 1081 548.8 1081C457.3 1081 365.7 1081 274.2 1081C182.7 1081 91.3 1081 45.7 1081L0 1081Z" fill="#bcb3ad"></path><path d="M0 886L45.7 884.8C91.3 883.7 182.7 881.3 274.2 869.3C365.7 857.3 457.3 835.7 548.8 827.7C640.3 819.7 731.7 825.3 823 844.7C914.3 864 1005.7 897 1097 902.5C1188.3 908 1279.7 886 1371.2 865.7C1462.7 845.3 1554.3 826.7 1645.8 826.3C1737.3 826 1828.7 844 1874.3 853L1920 862L1920 1081L1874.3 1081C1828.7 1081 1737.3 1081 1645.8 1081C1554.3 1081 1462.7 1081 1371.2 1081C1279.7 1081 1188.3 1081 1097 1081C1005.7 1081 914.3 1081 823 1081C731.7 1081 640.3 1081 548.8 1081C457.3 1081 365.7 1081 274.2 1081C182.7 1081 91.3 1081 45.7 1081L0 1081Z" fill="#aba19a"></path><path d="M0 924L45.7 929C91.3 934 182.7 944 274.2 949.3C365.7 954.7 457.3 955.3 548.8 954.2C640.3 953 731.7 950 823 941C914.3 932 1005.7 917 1097 911.8C1188.3 906.7 1279.7 911.3 1371.2 917.5C1462.7 923.7 1554.3 931.3 1645.8 936.5C1737.3 941.7 1828.7 944.3 1874.3 945.7L1920 947L1920 1081L1874.3 1081C1828.7 1081 1737.3 1081 1645.8 1081C1554.3 1081 1462.7 1081 1371.2 1081C1279.7 1081 1188.3 1081 1097 1081C1005.7 1081 914.3 1081 823 1081C731.7 1081 640.3 1081 548.8 1081C457.3 1081 365.7 1081 274.2 1081C182.7 1081 91.3 1081 45.7 1081L0 1081Z" fill="#9b8f87"></path><path d="M0 1024L45.7 1023.3C91.3 1022.7 182.7 1021.3 274.2 1016C365.7 1010.7 457.3 1001.3 548.8 997.8C640.3 994.3 731.7 996.7 823 1004.2C914.3 1011.7 1005.7 1024.3 1097 1023.3C1188.3 1022.3 1279.7 1007.7 1371.2 997.8C1462.7 988 1554.3 983 1645.8 982C1737.3 981 1828.7 984 1874.3 985.5L1920 987L1920 1081L1874.3 1081C1828.7 1081 1737.3 1081 1645.8 1081C1554.3 1081 1462.7 1081 1371.2 1081C1279.7 1081 1188.3 1081 1097 1081C1005.7 1081 914.3 1081 823 1081C731.7 1081 640.3 1081 548.8 1081C457.3 1081 365.7 1081 274.2 1081C182.7 1081 91.3 1081 45.7 1081L0 1081Z" fill="#8b7e74"></path></svg>