<svg xmlns="http://www.w3.org/2000/svg" viewBox="0 0 24 24" id="lua">
  <g color="white"></g>
  <path d="M12 21.296c-5.126 0-9.296-4.171-9.296-9.298S6.874 2.7 12 2.7s9.296 4.171 9.296 9.298-4.171 9.298-9.296 9.298zM12 3.7c-4.575 0-8.296 3.723-8.296 8.298S7.425 20.296 12 20.296s8.296-3.723 8.296-8.298S16.574 3.7 12 3.7z" stroke="currentColor"></path>
  <path d="M15.643 10.854c-1.379 0-2.5-1.121-2.5-2.5s1.122-2.5 2.5-2.5 2.5 1.121 2.5 2.5-1.122 2.5-2.5 2.5zm0-4c-.827 0-1.5.673-1.5 1.5s.673 1.5 1.5 1.5 1.5-.673 1.5-1.5-.674-1.5-1.5-1.5zm5.153-.577c-1.696 0-3.077-1.381-3.077-3.077S19.099.123 20.796.123s3.077 1.381 3.077 3.077-1.381 3.077-3.077 3.077zm0-5.154c-1.145 0-2.077.932-2.077 2.077s.932 2.077 2.077 2.077 2.077-.932 2.077-2.077-.932-2.077-2.077-2.077z"></path>
  <path d="M22.097 7.005a.5.5 0 0 1-.439-.26c-.153-.28-.318-.554-.494-.817a.5.5 0 1 1 .832-.554c.192.289.372.586.539.892a.5.5 0 0 1-.438.739zM12 24c-.276 0-.531-.224-.531-.5s.193-.5.469-.5c.676 0 1.293-.051 1.896-.152a.501.501 0 0 1 .165.986c-.656.11-1.33.166-1.999.166zm-2.038-.181a.524.524 0 0 1-.088-.008 11.94 11.94 0 0 1-2-.541.501.501 0 0 1 .345-.94c.593.218 1.21.385 1.832.496a.5.5 0 0 1-.089.993zm5.877-.476a.5.5 0 0 1-.166-.972 10.89 10.89 0 0 0 1.726-.786.5.5 0 1 1 .492.871c-.604.341-1.238.63-1.886.858a.476.476 0 0 1-.166.029zm-9.593-.885a.494.494 0 0 1-.25-.067 12.054 12.054 0 0 1-1.697-1.189.5.5 0 0 1 .643-.766c.486.407 1.009.773 1.556 1.09a.499.499 0 0 1-.252.932zm13.038-1.059a.499.499 0 0 1-.317-.887c.49-.401.947-.847 1.36-1.325a.5.5 0 0 1 .757.652 12.06 12.06 0 0 1-1.483 1.446.494.494 0 0 1-.317.114zm-16.07-1.481a.5.5 0 0 1-.382-.177 12.192 12.192 0 0 1-1.196-1.69.5.5 0 0 1 .862-.506c.321.547.69 1.068 1.098 1.55a.5.5 0 0 1-.382.823zm18.655-1.514a.5.5 0 0 1-.428-.757c.326-.544.606-1.118.833-1.708a.5.5 0 1 1 .934.359c-.247.643-.553 1.27-.909 1.862a.5.5 0 0 1-.43.244zm-20.652-1.9a.5.5 0 0 1-.469-.326 11.977 11.977 0 0 1-.55-1.997.501.501 0 0 1 .401-.583.503.503 0 0 1 .582.401c.114.623.284 1.238.504 1.831a.5.5 0 0 1-.468.674zm22.072-1.795a.5.5 0 0 1-.492-.595 11.1 11.1 0 0 0 .2-1.889.5.5 0 0 1 1 .02 12.072 12.072 0 0 1-.219 2.059.498.498 0 0 1-.489.405zM.5 12.614a.5.5 0 0 1-.5-.493V12c0-.651.053-1.306.157-1.945a.492.492 0 0 1 .574-.413.5.5 0 0 1 .413.573A11.096 11.096 0 0 0 1 12v.107a.501.501 0 0 1-.494.507H.5zm22.867-1.86a.5.5 0 0 1-.494-.424 10.918 10.918 0 0 0-.451-1.845.5.5 0 0 1 .947-.321c.221.652.387 1.33.492 2.013a.5.5 0 0 1-.494.577zM1.139 8.71a.502.502 0 0 1-.472-.665c.228-.651.514-1.287.851-1.89a.5.5 0 1 1 .873.489 10.897 10.897 0 0 0-.78 1.731.5.5 0 0 1-.472.335zm1.929-3.454a.501.501 0 0 1-.387-.816c.433-.533.917-1.034 1.439-1.489a.5.5 0 0 1 .657.754c-.479.417-.922.877-1.32 1.366a.502.502 0 0 1-.389.185zm2.984-2.6a.5.5 0 0 1-.26-.927A11.92 11.92 0 0 1 7.65.812a.498.498 0 1 1 .363.931c-.591.23-1.164.513-1.702.84a.49.49 0 0 1-.259.073zm9.573-1.073a.516.516 0 0 1-.158-.025c-.6-.2-1.221-.348-1.846-.439a.501.501 0 0 1 .145-.99c.683.101 1.361.263 2.017.48a.501.501 0 0 1-.158.974zm-5.888-.36a.5.5 0 0 1-.098-.991c.67-.134 1.363-.211 2.058-.229a.516.516 0 0 1 .513.487.5.5 0 0 1-.486.513 11.17 11.17 0 0 0-1.889.21.473.473 0 0 1-.098.01zm8.602 1.697a.49.49 0 0 1-.278-.085 11.116 11.116 0 0 0-.816-.499.5.5 0 0 1 .486-.875c.305.169.601.351.889.544a.5.5 0 0 1-.281.915zM9 16.5H6a.5.5 0 0 1-.5-.5v-6a.5.5 0 0 1 1 0v5.5H9a.5.5 0 0 1 0 1zm2.75 0c-1.103 0-2-.897-2-2v-2.502a.5.5 0 0 1 1 0V14.5a1.001 1.001 0 0 0 2 0V12a.5.5 0 0 1 1 0v2.5c0 1.103-.897 2-2 2zM18 16.5a.5.5 0 0 1-.5-.5v-2.583a.918.918 0 0 0-.917-.917h-.167a.918.918 0 0 0-.917.917.5.5 0 0 1-1 0 1.92 1.92 0 0 1 1.917-1.917h.167a1.92 1.92 0 0 1 1.917 1.917V16a.5.5 0 0 1-.5.5z"></path>
  <path d="M18 16.5h-2.25c-.689 0-1.25-.561-1.25-1.25S15.061 14 15.75 14H18a.5.5 0 0 1 .5.5V16a.5.5 0 0 1-.5.5zM15.75 15a.25.25 0 0 0 0 .5h1.75V15h-1.75z"></path>
</svg>