<?xml version="1.0" encoding="UTF-8"?><svg id="Layer_1" xmlns="http://www.w3.org/2000/svg" viewBox="0 0 342.7 237.82"><defs><style>.cls-1{fill:#e3e8ff;}</style></defs><path class="cls-1" d="m72.65,46.67c5.2-1.39,14.99-2.08,29.38-2.08,23.22,0,39.26,1.82,48.1,5.46,7.62,3.29,12.7,6.46,15.21,9.49,2.51,3.03,4.29,8.1,5.33,15.21.35,1.91.52,4.94.52,9.1,0,11.09-1.3,18.38-3.9,21.84-1.73,2.08-4.42,3.73-8.06,4.94l-5.72,1.82,5.98,4.42c11.61,8.15,17.42,20.8,17.42,37.96,0,7.11-1.04,12.92-3.12,17.42-1.73,3.64-4.12,7.11-7.15,10.4-3.04,3.29-5.94,5.55-8.71,6.76-2.95,1.21-8.45,2.77-16.51,4.68-8.06,1.91-14.17,3.03-18.33,3.38-4.16.35-9.45,1.04-15.86,2.08-2.78.35-5.72.52-8.84.52-14.56,0-26.61-1.13-36.14-3.38-9.53-2.08-18.03-6.5-25.48-13.26-7.45-6.76-11.87-14.04-13.26-21.84,0-.35-.04-.69-.13-1.04-.09-.35-.13-.61-.13-.78,0-1.39,1.91-4.25,5.72-8.58,9.19-9.71,21.06-14.56,35.62-14.56,13.69,0,22.71,5.98,27.04,17.94,1.21,3.12,2.6,5.29,4.16,6.5,1.56,1.21,3.81,1.82,6.76,1.82h.52c3.99,0,7.15-1.08,9.49-3.25,2.34-2.17,3.51-4.98,3.51-8.45,0-2.43-.61-4.29-1.82-5.59-1.21-1.3-3.55-2.64-7.02-4.03-10.75-3.99-24.18-7.19-40.3-9.62-12.13-1.91-19.98-4.81-23.53-8.71-3.55-3.9-5.33-11.74-5.33-23.53,0-12.48,1.91-22.53,5.72-30.16,3.47-6.76,7.19-11.74,11.18-14.95,3.99-3.21,9.88-5.85,17.68-7.93Zm37.44,22.1c-1.91-1.39-3.64-2.08-5.2-2.08-3.29,0-6.2,2.08-8.71,6.24-2.52,4.16-3.77,9.27-3.77,15.34,0,4.68,1.04,7.98,3.12,9.88,2.08,2.08,5.98,3.12,11.7,3.12,3.81,0,6.37-.17,7.67-.52,1.3-.35,1.95-1.12,1.95-2.34,0-2.25-.61-7.02-1.82-14.3-1.56-8.84-3.21-13.95-4.94-15.34Z"/><path class="cls-1" d="m197.53,40.45c9.28-1.32,15.74-2.13,19.36-2.44s10.15-.35,19.56-.11c11.33.25,19.43,1.38,24.3,3.4,4.87,2.02,8.55,4.4,11.05,7.14,2.68,2.9,5.82,7.51,9.4,13.81,3.58,6.31,5.96,11.23,7.14,14.79.71,2.2,1.18,4.69,1.42,7.45.56,6.57.06,13.43-1.5,20.61-1.56,7.18-3.83,12.72-6.8,16.63-2.84,3.38-4.23,5.41-4.18,6.1.04.52,1.87,1.58,5.49,3.18,3.8,1.76,8.31,5.12,13.52,10.06,5.21,4.95,9.89,10.38,14.05,16.28,5.54,7.88,8.49,13.8,8.83,17.77.06.69,0,2.09-.16,4.19-.34,2.12-.91,3.6-1.71,4.45-.8.85-2.94,2.21-6.44,4.07-3.83,2.07-8.76,3.36-14.8,3.88-8.46.72-17.75-.13-27.88-2.57-10.12-2.44-19.05-6.11-26.78-11.02-3.15-2.17-5.06-3.22-5.75-3.16-.17.01-.26,2.02-.27,6.03-.07,7.31-2.8,11.98-8.2,14.01-.68.23-2.74.5-6.2.79-6.39.55-14.41.84-24.06.88-9.65.04-15.63-.18-17.93-.69-2.68-.81-4.32-1.72-4.93-2.71-1.69-3.51-4.4-27.02-8.12-70.54-3.26-38.17-4.42-58.77-3.46-61.81,1.62-5.53,5.63-10.4,12.06-14.6,3.95-2.6,11.61-4.56,22.98-5.88Zm47.54,49.43c-1.95-8.53-8.59-13.01-19.94-13.43-1.23-.07-2.7-.03-4.43.12-2.94.25-4.76,1.32-5.47,3.21-.71,1.89-.82,5.68-.33,11.38s1.23,9.29,2.23,10.77c1,1.48,3.31,2.07,6.94,1.75.34-.03,1.07-.13,2.19-.32,1.11-.18,2.02-.3,2.71-.36,5.34-.63,9.54-2.29,12.62-4.99,2.77-2.15,4.09-4.09,3.94-5.82-.01-.17-.09-.51-.22-1.03-.13-.51-.21-.94-.24-1.28Z"/></svg>